<svg viewBox="0 0 2000 2000" version="1.1" xmlns:xlink="http://www.w3.org/1999/xlink" xmlns="http://www.w3.org/2000/svg" data-sanitized-data-name="Layer 1" data-name="Layer 1" id="Layer_1">
  <defs>
    <style>
      .cls-1 {
        fill: url(#linear-gradient);
      }

      .cls-1, .cls-2 {
        stroke-width: 0px;
      }

      .cls-2 {
        fill: #02dbdd;
      }
    </style>
    <linearGradient gradientUnits="userSpaceOnUse" y2="943.6" x2="1845.1" y1="943.6" x1="154.9" id="linear-gradient">
      <stop stop-color="#02948f" offset="0"></stop>
      <stop stop-color="#1768a4" offset="1"></stop>
    </linearGradient>
  </defs>
  <path d="M339.1,952.2v99.4h-78.4v-100.6l-105.7-176.6h82.8l65.7,110.1,65.7-110.1h76l-106.1,177.8ZM458.7,928v-153.6h78.4v151.3c0,47.5,19.8,66.5,52.7,66.5s52.3-19,52.3-66.5v-151.3h77.2v153.6c0,82.8-48.3,129.1-130.3,129.1s-130.3-46.3-130.3-129.1ZM769.9,928v-153.6h78.4v151.3c0,47.5,19.8,66.5,52.7,66.5s52.3-19,52.3-66.5v-151.3h77.2v153.6c0,82.8-48.3,129.1-130.3,129.1s-130.3-46.3-130.3-129.1ZM1347.3,774.4v277.2h-64.5l-122.4-147.7v147.7h-76.8v-277.2h64.5l122.4,147.7v-147.7h76.8ZM1402.7,774.4h78.4v277.2h-78.4v-277.2ZM1845.1,1083.6c-18.6,22.6-45.9,34.8-77.6,34.8-45.1,0-74.8-15.4-121.2-63.8-72.9-12.3-123.6-68.5-123.6-141.8s65.3-144.1,154-144.1,154,61,154,144.1-37.6,113.3-94.2,133.8c11.1,11.9,20.6,15.8,32.5,15.8s29.7-6.7,42-19.4l34.1,40.4ZM1676.8,992.2c42,0,74.8-31.3,74.8-79.2s-32.9-79.2-74.8-79.2-74.8,31.3-74.8,79.2,32.9,79.2,74.8,79.2Z" class="cls-1"></path>
  <g>
    <path d="M1185.3,1173.8v56.4h-13.1v-55.1c0-20.5-10.7-31.1-29.2-31.1s-34,13-34,35.2v51.1h-13.1v-137.3h13.1v57c7.2-11.3,20-17.8,36.4-17.8,23.7,0,40,13.7,40,41.6Z" class="cls-2"></path>
    <path d="M1306.1,1185.7h-81.4c1.5,20.4,17,33.9,38.3,33.9s22.4-4.3,29.8-12.8l7.4,8.5c-8.7,10.4-22.2,15.9-37.6,15.9-30.3,0-51.1-20.7-51.1-49.6s20.2-49.4,47.5-49.4,47.2,20.2,47.2,49.4-.2,2.6-.2,4.1ZM1224.7,1175.9h69c-1.7-19.1-15.5-32.4-34.6-32.4s-32.7,13.3-34.4,32.4Z" class="cls-2"></path>
    <path d="M1403.8,1169.9v60.3h-12.6v-15.2c-5.9,10-17.4,16.1-33.5,16.1s-35.5-11.5-35.5-28.3,9.6-27.6,37.6-27.6h30.9v-5.9c0-16.7-9.4-25.7-27.6-25.7s-24.4,4.4-32.4,11.5l-5.9-9.8c9.8-8.3,24.2-13.1,39.6-13.1,25.2,0,39.4,12.6,39.4,37.7ZM1390.7,1201v-15.9h-30.5c-18.9,0-25,7.4-25,17.4s9.1,18.3,24.6,18.3,25.7-7,30.9-19.8Z" class="cls-2"></path>
    <path d="M1439.5,1093h13.1v137.3h-13.1v-137.3Z" class="cls-2"></path>
    <path d="M1540.9,1224.3c-5.2,4.6-13,6.8-20.5,6.8-18.3,0-28.5-10.4-28.5-28.3v-58.8h-17.4v-11.1h17.4v-21.3h13.1v21.3h29.6v11.1h-29.6v58.1c0,11.5,5.9,17.8,16.8,17.8s10.7-1.7,14.4-5l4.6,9.4Z" class="cls-2"></path>
    <path d="M1654.3,1173.8v56.4h-13.1v-55.1c0-20.5-10.7-31.1-29.2-31.1s-34,13-34,35.2v51.1h-13.1v-137.3h13.1v57c7.2-11.3,20-17.8,36.4-17.8,23.7,0,40,13.7,40,41.6Z" class="cls-2"></path>
  </g>
</svg>